lift_the_feet coordinate motion generated from LLM joint_angles
version=1
nRows=36
nColumns=36
inDegrees=yes
endheader
time	pelvis_tilt	pelvis_list	pelvis_rotation	pelvis_tx	pelvis_ty	pelvis_tz	hip_flexion_r	hip_adduction_r	hip_rotation_r	knee_angle_r	knee_angle_r_beta	ankle_angle_r	subtalar_angle_r	mtp_angle_r	hip_flexion_l	hip_adduction_l	hip_rotation_l	knee_angle_l	knee_angle_l_beta	ankle_angle_l	subtalar_angle_l	mtp_angle_l	lumbar_extension	lumbar_bending	lumbar_rotation	arm_flex_r	arm_add_r	arm_rot_r	elbow_flex_r	pro_sup_r	arm_flex_l	arm_add_l	arm_rot_l	elbow_flex_l	pro_sup_l
0.753333	0.000000	0.000000	0.000000	0.000000	0.000000	0.000000	0.000000	0.000000	0.000000	6.996633	0.000000	13.993267	3.498317	6.996633	0.000000	0.000000	0.000000	6.996633	0.000000	13.993267	3.498317	6.996633	0.000000	0.000000	0.000000	0.000000	0.000000	0.000000	0.000000	0.000000	0.000000	0.000000	0.000000	0.000000	0.000000
0.760000	0.000000	0.000000	0.000000	0.000000	0.000000	0.000000	0.000000	0.000000	0.000000	6.845471	0.000000	13.690942	3.422736	6.845471	0.000000	0.000000	0.000000	6.845471	0.000000	13.690942	3.422736	6.845471	0.000000	0.000000	0.000000	0.000000	0.000000	0.000000	0.000000	0.000000	0.000000	0.000000	0.000000	0.000000	0.000000
0.766667	0.000000	0.000000	0.000000	0.000000	0.000000	0.000000	0.000000	0.000000	0.000000	6.691306	0.000000	13.382612	3.345653	6.691306	0.000000	0.000000	0.000000	6.691306	0.000000	13.382612	3.345653	6.691306	0.000000	0.000000	0.000000	0.000000	0.000000	0.000000	0.000000	0.000000	0.000000	0.000000	0.000000	0.000000	0.000000
0.773333	0.000000	0.000000	0.000000	0.000000	0.000000	0.000000	0.000000	0.000000	0.000000	6.534206	0.000000	13.068412	3.267103	6.534206	0.000000	0.000000	0.000000	6.534206	0.000000	13.068412	3.267103	6.534206	0.000000	0.000000	0.000000	0.000000	0.000000	0.000000	0.000000	0.000000	0.000000	0.000000	0.000000	0.000000	0.000000
0.780000	0.000000	0.000000	0.000000	0.000000	0.000000	0.000000	0.000000	0.000000	0.000000	6.374240	0.000000	12.748480	3.187120	6.374240	0.000000	0.000000	0.000000	6.374240	0.000000	12.748480	3.187120	6.374240	0.000000	0.000000	0.000000	0.000000	0.000000	0.000000	0.000000	0.000000	0.000000	0.000000	0.000000	0.000000	0.000000
0.786667	0.000000	0.000000	0.000000	0.000000	0.000000	0.000000	0.000000	0.000000	0.000000	6.211478	0.000000	12.422956	3.105739	6.211478	0.000000	0.000000	0.000000	6.211478	0.000000	12.422956	3.105739	6.211478	0.000000	0.000000	0.000000	0.000000	0.000000	0.000000	0.000000	0.000000	0.000000	0.000000	0.000000	0.000000	0.000000
0.793333	0.000000	0.000000	0.000000	0.000000	0.000000	0.000000	0.000000	0.000000	0.000000	6.045991	0.000000	12.091982	3.022996	6.045991	0.000000	0.000000	0.000000	6.045991	0.000000	12.091982	3.022996	6.045991	0.000000	0.000000	0.000000	0.000000	0.000000	0.000000	0.000000	0.000000	0.000000	0.000000	0.000000	0.000000	0.000000
0.800000	0.000000	0.000000	0.000000	0.000000	0.000000	0.000000	0.000000	0.000000	0.000000	5.877853	0.000000	11.755705	2.938926	5.877853	0.000000	0.000000	0.000000	5.877853	0.000000	11.755705	2.938926	5.877853	0.000000	0.000000	0.000000	0.000000	0.000000	0.000000	0.000000	0.000000	0.000000	0.000000	0.000000	0.000000	0.000000
0.806667	0.000000	0.000000	0.000000	0.000000	0.000000	0.000000	0.000000	0.000000	0.000000	5.707136	0.000000	11.414271	2.853568	5.707136	0.000000	0.000000	0.000000	5.707136	0.000000	11.414271	2.853568	5.707136	0.000000	0.000000	0.000000	0.000000	0.000000	0.000000	0.000000	0.000000	0.000000	0.000000	0.000000	0.000000	0.000000
0.813333	0.000000	0.000000	0.000000	0.000000	0.000000	0.000000	0.000000	0.000000	0.000000	5.533915	0.000000	11.067831	2.766958	5.533915	0.000000	0.000000	0.000000	5.533915	0.000000	11.067831	2.766958	5.533915	0.000000	0.000000	0.000000	0.000000	0.000000	0.000000	0.000000	0.000000	0.000000	0.000000	0.000000	0.000000	0.000000
0.820000	0.000000	0.000000	0.000000	0.000000	0.000000	0.000000	0.000000	0.000000	0.000000	5.358268	0.000000	10.716536	2.679134	5.358268	0.000000	0.000000	0.000000	5.358268	0.000000	10.716536	2.679134	5.358268	0.000000	0.000000	0.000000	0.000000	0.000000	0.000000	0.000000	0.000000	0.000000	0.000000	0.000000	0.000000	0.000000
0.826667	0.000000	0.000000	0.000000	0.000000	0.000000	0.000000	0.000000	0.000000	0.000000	5.180270	0.000000	10.360540	2.590135	5.180270	0.000000	0.000000	0.000000	5.180270	0.000000	10.360540	2.590135	5.180270	0.000000	0.000000	0.000000	0.000000	0.000000	0.000000	0.000000	0.000000	0.000000	0.000000	0.000000	0.000000	0.000000
0.833333	0.000000	0.000000	0.000000	0.000000	0.000000	0.000000	0.000000	0.000000	0.000000	5.000000	0.000000	10.000000	2.500000	5.000000	0.000000	0.000000	0.000000	5.000000	0.000000	10.000000	2.500000	5.000000	0.000000	0.000000	0.000000	0.000000	0.000000	0.000000	0.000000	0.000000	0.000000	0.000000	0.000000	0.000000	0.000000
0.840000	0.000000	0.000000	0.000000	0.000000	0.000000	0.000000	0.000000	0.000000	0.000000	4.817537	0.000000	9.635073	2.408768	4.817537	0.000000	0.000000	0.000000	4.817537	0.000000	9.635073	2.408768	4.817537	0.000000	0.000000	0.000000	0.000000	0.000000	0.000000	0.000000	0.000000	0.000000	0.000000	0.000000	0.000000	0.000000
0.846667	0.000000	0.000000	0.000000	0.000000	0.000000	0.000000	0.000000	0.000000	0.000000	4.632960	0.000000	9.265921	2.316480	4.632960	0.000000	0.000000	0.000000	4.632960	0.000000	9.265921	2.316480	4.632960	0.000000	0.000000	0.000000	0.000000	0.000000	0.000000	0.000000	0.000000	0.000000	0.000000	0.000000	0.000000	0.000000
0.853333	0.000000	0.000000	0.000000	0.000000	0.000000	0.000000	0.000000	0.000000	0.000000	4.446352	0.000000	8.892704	2.223176	4.446352	0.000000	0.000000	0.000000	4.446352	0.000000	8.892704	2.223176	4.446352	0.000000	0.000000	0.000000	0.000000	0.000000	0.000000	0.000000	0.000000	0.000000	0.000000	0.000000	0.000000	0.000000
0.860000	0.000000	0.000000	0.000000	0.000000	0.000000	0.000000	0.000000	0.000000	0.000000	4.257793	0.000000	8.515586	2.128896	4.257793	0.000000	0.000000	0.000000	4.257793	0.000000	8.515586	2.128896	4.257793	0.000000	0.000000	0.000000	0.000000	0.000000	0.000000	0.000000	0.000000	0.000000	0.000000	0.000000	0.000000	0.000000
0.866667	0.000000	0.000000	0.000000	0.000000	0.000000	0.000000	0.000000	0.000000	0.000000	4.067366	0.000000	8.134733	2.033683	4.067366	0.000000	0.000000	0.000000	4.067366	0.000000	8.134733	2.033683	4.067366	0.000000	0.000000	0.000000	0.000000	0.000000	0.000000	0.000000	0.000000	0.000000	0.000000	0.000000	0.000000	0.000000
0.873333	0.000000	0.000000	0.000000	0.000000	0.000000	0.000000	0.000000	0.000000	0.000000	3.875156	0.000000	7.750312	1.937578	3.875156	0.000000	0.000000	0.000000	3.875156	0.000000	7.750312	1.937578	3.875156	0.000000	0.000000	0.000000	0.000000	0.000000	0.000000	0.000000	0.000000	0.000000	0.000000	0.000000	0.000000	0.000000
0.880000	0.000000	0.000000	0.000000	0.000000	0.000000	0.000000	0.000000	0.000000	0.000000	3.681246	0.000000	7.362491	1.840623	3.681246	0.000000	0.000000	0.000000	3.681246	0.000000	7.362491	1.840623	3.681246	0.000000	0.000000	0.000000	0.000000	0.000000	0.000000	0.000000	0.000000	0.000000	0.000000	0.000000	0.000000	0.000000
0.886667	0.000000	0.000000	0.000000	0.000000	0.000000	0.000000	0.000000	0.000000	0.000000	3.485720	0.000000	6.971441	1.742860	3.485720	0.000000	0.000000	0.000000	3.485720	0.000000	6.971441	1.742860	3.485720	0.000000	0.000000	0.000000	0.000000	0.000000	0.000000	0.000000	0.000000	0.000000	0.000000	0.000000	0.000000	0.000000
0.893333	0.000000	0.000000	0.000000	0.000000	0.000000	0.000000	0.000000	0.000000	0.000000	3.288666	0.000000	6.577333	1.644333	3.288666	0.000000	0.000000	0.000000	3.288666	0.000000	6.577333	1.644333	3.288666	0.000000	0.000000	0.000000	0.000000	0.000000	0.000000	0.000000	0.000000	0.000000	0.000000	0.000000	0.000000	0.000000
0.900000	0.000000	0.000000	0.000000	0.000000	0.000000	0.000000	0.000000	0.000000	0.000000	3.090170	0.000000	6.180340	1.545085	3.090170	0.000000	0.000000	0.000000	3.090170	0.000000	6.180340	1.545085	3.090170	0.000000	0.000000	0.000000	0.000000	0.000000	0.000000	0.000000	0.000000	0.000000	0.000000	0.000000	0.000000	0.000000
0.906667	0.000000	0.000000	0.000000	0.000000	0.000000	0.000000	0.000000	0.000000	0.000000	2.890318	0.000000	5.780636	1.445159	2.890318	0.000000	0.000000	0.000000	2.890318	0.000000	5.780636	1.445159	2.890318	0.000000	0.000000	0.000000	0.000000	0.000000	0.000000	0.000000	0.000000	0.000000	0.000000	0.000000	0.000000	0.000000
0.913333	0.000000	0.000000	0.000000	0.000000	0.000000	0.000000	0.000000	0.000000	0.000000	2.689198	0.000000	5.378396	1.344599	2.689198	0.000000	0.000000	0.000000	2.689198	0.000000	5.378396	1.344599	2.689198	0.000000	0.000000	0.000000	0.000000	0.000000	0.000000	0.000000	0.000000	0.000000	0.000000	0.000000	0.000000	0.000000
0.920000	0.000000	0.000000	0.000000	0.000000	0.000000	0.000000	0.000000	0.000000	0.000000	2.486899	0.000000	4.973798	1.243449	2.486899	0.000000	0.000000	0.000000	2.486899	0.000000	4.973798	1.243449	2.486899	0.000000	0.000000	0.000000	0.000000	0.000000	0.000000	0.000000	0.000000	0.000000	0.000000	0.000000	0.000000	0.000000
0.926667	0.000000	0.000000	0.000000	0.000000	0.000000	0.000000	0.000000	0.000000	0.000000	2.283509	0.000000	4.567017	1.141754	2.283509	0.000000	0.000000	0.000000	2.283509	0.000000	4.567017	1.141754	2.283509	0.000000	0.000000	0.000000	0.000000	0.000000	0.000000	0.000000	0.000000	0.000000	0.000000	0.000000	0.000000	0.000000
0.933333	0.000000	0.000000	0.000000	0.000000	0.000000	0.000000	0.000000	0.000000	0.000000	2.079117	0.000000	4.158234	1.039558	2.079117	0.000000	0.000000	0.000000	2.079117	0.000000	4.158234	1.039558	2.079117	0.000000	0.000000	0.000000	0.000000	0.000000	0.000000	0.000000	0.000000	0.000000	0.000000	0.000000	0.000000	0.000000
0.940000	0.000000	0.000000	0.000000	0.000000	0.000000	0.000000	0.000000	0.000000	0.000000	1.873813	0.000000	3.747626	0.936907	1.873813	0.000000	0.000000	0.000000	1.873813	0.000000	3.747626	0.936907	1.873813	0.000000	0.000000	0.000000	0.000000	0.000000	0.000000	0.000000	0.000000	0.000000	0.000000	0.000000	0.000000	0.000000
0.946667	0.000000	0.000000	0.000000	0.000000	0.000000	0.000000	0.000000	0.000000	0.000000	1.667687	0.000000	3.335375	0.833844	1.667687	0.000000	0.000000	0.000000	1.667687	0.000000	3.335375	0.833844	1.667687	0.000000	0.000000	0.000000	0.000000	0.000000	0.000000	0.000000	0.000000	0.000000	0.000000	0.000000	0.000000	0.000000
0.953333	0.000000	0.000000	0.000000	0.000000	0.000000	0.000000	0.000000	0.000000	0.000000	1.460830	0.000000	2.921661	0.730415	1.460830	0.000000	0.000000	0.000000	1.460830	0.000000	2.921661	0.730415	1.460830	0.000000	0.000000	0.000000	0.000000	0.000000	0.000000	0.000000	0.000000	0.000000	0.000000	0.000000	0.000000	0.000000
0.960000	0.000000	0.000000	0.000000	0.000000	0.000000	0.000000	0.000000	0.000000	0.000000	1.253332	0.000000	2.506665	0.626666	1.253332	0.000000	0.000000	0.000000	1.253332	0.000000	2.506665	0.626666	1.253332	0.000000	0.000000	0.000000	0.000000	0.000000	0.000000	0.000000	0.000000	0.000000	0.000000	0.000000	0.000000	0.000000
0.966667	0.000000	0.000000	0.000000	0.000000	0.000000	0.000000	0.000000	0.000000	0.000000	1.045285	0.000000	2.090569	0.522642	1.045285	0.000000	0.000000	0.000000	1.045285	0.000000	2.090569	0.522642	1.045285	0.000000	0.000000	0.000000	0.000000	0.000000	0.000000	0.000000	0.000000	0.000000	0.000000	0.000000	0.000000	0.000000
0.973333	0.000000	0.000000	0.000000	0.000000	0.000000	0.000000	0.000000	0.000000	0.000000	0.836778	0.000000	1.673557	0.418389	0.836778	0.000000	0.000000	0.000000	0.836778	0.000000	1.673557	0.418389	0.836778	0.000000	0.000000	0.000000	0.000000	0.000000	0.000000	0.000000	0.000000	0.000000	0.000000	0.000000	0.000000	0.000000
0.980000	0.000000	0.000000	0.000000	0.000000	0.000000	0.000000	0.000000	0.000000	0.000000	0.627905	0.000000	1.255810	0.313953	0.627905	0.000000	0.000000	0.000000	0.627905	0.000000	1.255810	0.313953	0.627905	0.000000	0.000000	0.000000	0.000000	0.000000	0.000000	0.000000	0.000000	0.000000	0.000000	0.000000	0.000000	0.000000
0.986667	0.000000	0.000000	0.000000	0.000000	0.000000	0.000000	0.000000	0.000000	0.000000	0.418757	0.000000	0.837513	0.209378	0.418757	0.000000	0.000000	0.000000	0.418757	0.000000	0.837513	0.209378	0.418757	0.000000	0.000000	0.000000	0.000000	0.000000	0.000000	0.000000	0.000000	0.000000	0.000000	0.000000	0.000000	0.000000
